<svg width="13" height="13" viewBox="0 0 13 13" fill="none" xmlns="http://www.w3.org/2000/svg">
<g clip-path="url(#clip0_679_3400)">
<path d="M6.5 12.5C9.81371 12.5 12.5 9.81371 12.5 6.5C12.5 3.18629 9.81371 0.5 6.5 0.5C3.18629 0.5 0.5 3.18629 0.5 6.5C0.5 9.81371 3.18629 12.5 6.5 12.5Z" fill="#32BA7C"/>
<path d="M4.9668 9.20663L8.05197 12.2918C10.6072 11.6104 12.4999 9.28234 12.4999 6.50001C12.4999 6.44323 12.4999 6.38644 12.4999 6.32966L10.0772 4.09622L4.9668 9.20663Z" fill="#0AA06E"/>
<path d="M6.65152 7.84386C6.9165 8.10885 6.9165 8.56311 6.65152 8.82809L6.10262 9.37699C5.83764 9.64197 5.38338 9.64197 5.11839 9.37699L2.71461 6.95427C2.44962 6.68929 2.44962 6.23503 2.71461 5.97005L3.2635 5.42115C3.52849 5.15617 3.98275 5.15617 4.24773 5.42115L6.65152 7.84386Z" fill="white"/>
<path d="M8.75242 3.6609C9.01741 3.39591 9.47167 3.39591 9.73665 3.6609L10.2855 4.20979C10.5505 4.47478 10.5505 4.92903 10.2855 5.19402L6.12151 9.33913C5.85653 9.60411 5.40227 9.60411 5.13728 9.33913L4.58839 8.79023C4.3234 8.52525 4.3234 8.07099 4.58839 7.80601L8.75242 3.6609Z" fill="white"/>
</g>
<defs>
<clipPath id="clip0_679_3400">
<rect width="12" height="12" fill="white" transform="translate(0.5 0.5)"/>
</clipPath>
</defs>
</svg>
