<svg width="12" height="13" viewBox="0 0 12 13" fill="none" xmlns="http://www.w3.org/2000/svg">
<g clip-path="url(#clip0_679_3408)">
<path d="M6 0.5C2.69147 0.5 0 3.19147 0 6.5C0 9.80853 2.69147 12.5 6 12.5C9.30853 12.5 12 9.80853 12 6.5C12 3.19147 9.30853 0.5 6 0.5Z" fill="#F44336"/>
<path d="M8.20947 8.00246C8.40493 8.19802 8.40493 8.51397 8.20947 8.70953C8.11196 8.80703 7.98397 8.85601 7.85589 8.85601C7.7279 8.85601 7.59991 8.80703 7.5024 8.70953L5.99993 7.20696L4.49746 8.70953C4.39996 8.80703 4.27197 8.85601 4.14397 8.85601C4.01589 8.85601 3.8879 8.80703 3.7904 8.70953C3.59493 8.51397 3.59493 8.19802 3.7904 8.00246L5.29296 6.49999L3.7904 4.99752C3.59493 4.80196 3.59493 4.48602 3.7904 4.29046C3.98595 4.09499 4.3019 4.09499 4.49746 4.29046L5.99993 5.79302L7.5024 4.29046C7.69796 4.09499 8.01391 4.09499 8.20947 4.29046C8.40493 4.48602 8.40493 4.80196 8.20947 4.99752L6.7069 6.49999L8.20947 8.00246Z" fill="#FAFAFA"/>
</g>
<defs>
<clipPath id="clip0_679_3408">
<rect width="12" height="12" fill="white" transform="translate(0 0.5)"/>
</clipPath>
</defs>
</svg>
