<svg width="18" height="17" viewBox="0 0 18 17" fill="none" xmlns="http://www.w3.org/2000/svg">
<path d="M10.0417 8.94205V10.5921C10.0417 11.1671 9.57499 11.6337 8.99999 11.6337C8.42499 11.6337 7.95832 11.1671 7.95832 10.5921V8.94205C7.65832 8.75872 7.42499 8.49205 7.25832 8.17538H1.49999C1.04166 8.17538 0.666656 8.55038 0.666656 9.00872V11.9504C0.666656 14.6254 2.83332 16.7921 5.50832 16.7921H12.4833C15.1667 16.7921 17.3333 14.6254 17.3333 11.9504V9.00872C17.3333 8.55038 16.9583 8.17538 16.5 8.17538H10.7417C10.575 8.49205 10.3417 8.75872 10.0417 8.94205Z" fill="black"/>
<path d="M12.4917 0.125214H5.50832C2.83332 0.125214 0.666656 2.29188 0.666656 4.96688V6.09188C0.666656 6.55021 1.04166 6.92521 1.49999 6.92521H7.05832C7.24999 5.82521 8.34166 5.04188 9.53332 5.35855C10.2 5.53355 10.7417 6.07521 10.9167 6.74188C10.9333 6.80021 10.9333 6.86688 10.9417 6.92521H16.5C16.9583 6.92521 17.3333 6.55021 17.3333 6.09188V4.96688C17.3333 2.29188 15.1667 0.125214 12.4917 0.125214Z" fill="black"/>
</svg>
