<svg width="20" height="21" viewBox="0 0 20 21" fill="none" xmlns="http://www.w3.org/2000/svg">
<path d="M16.0417 7.12521L18.1667 4.29188C18.2593 4.16801 18.3156 4.02083 18.3294 3.86677C18.3432 3.71272 18.3139 3.55787 18.2447 3.41952C18.1755 3.28118 18.0693 3.1648 17.9377 3.0834C17.8062 3.00199 17.6547 2.95876 17.5 2.95855H7.49999C7.49999 2.73753 7.41219 2.52557 7.25591 2.36929C7.09963 2.21301 6.88767 2.12521 6.66666 2.12521C6.44564 2.12521 6.23368 2.21301 6.0774 2.36929C5.92112 2.52557 5.83332 2.73753 5.83332 2.95855V17.1252H4.99999C4.77898 17.1252 4.56701 17.213 4.41073 17.3693C4.25445 17.5256 4.16666 17.7375 4.16666 17.9585C4.16666 18.1796 4.25445 18.3915 4.41073 18.5478C4.56701 18.7041 4.77898 18.7919 4.99999 18.7919H8.33332C8.55434 18.7919 8.7663 18.7041 8.92258 18.5478C9.07886 18.3915 9.16666 18.1796 9.16666 17.9585C9.16666 17.7375 9.07886 17.5256 8.92258 17.3693C8.7663 17.213 8.55434 17.1252 8.33332 17.1252H7.49999V11.2919H17.5C17.6547 11.2917 17.8062 11.2484 17.9377 11.167C18.0693 11.0856 18.1755 10.9692 18.2447 10.8309C18.3139 10.6926 18.3432 10.5377 18.3294 10.3837C18.3156 10.2296 18.2593 10.0824 18.1667 9.95855L16.0417 7.12521Z" fill="black"/>
</svg>
