
        <svg xmlns="http://www.w3.org/2000/svg" xmlns:xlink="http://www.w3.org/1999/xlink" version="1.1" width="3172.413793103449" 
        height="829.5430078714782" viewBox="0 0 3172.413793103449 829.5430078714782">
			
			<g transform="scale(8.620689655172415) translate(10, 10)">
				<defs id="SvgjsDefs6544"></defs><g id="SvgjsG6545" featureKey="symbolFeature-0" transform="matrix(5.350051564177152,0,0,5.350051564177152,219.8662486790068,3.534998587326501)" fill="#111111"><title xmlns="http://www.w3.org/2000/svg">82 - Justice (Outline)</title><desc xmlns="http://www.w3.org/2000/svg">Created with Sketch.</desc><g xmlns="http://www.w3.org/2000/svg"><g><path class="st0" d="M12.6,4.8c0.5-0.4,0.5-1.2,0-1.6L8.7,0.3c-0.4-0.4-1.1-0.4-1.5,0L0.5,5.4L0.4,5.5    C-0.1,6-0.1,7,0.4,7.6l0.1,0.1l6.7,5.1c0.4,0.4,1.1,0.4,1.5,0l3.8-2.9c0.5-0.4,0.5-1.2,0-1.6l-2.3-1.7L12.6,4.8z M8,10.8L2.3,6.5     M2.3,6.5L8,2.2L10.3,4L8,5.7C7.5,6.1,7.5,6.9,8,7.4l2.3,1.7L8,10.8" style="fill: #111111;"></path><path class="st0" d="M16,10.8L16,10.8l-2.3-1.7L16,7.4c0.6-0.4,0.6-1.2,0-1.7L13.7,4L16,2.2l0,0l5.7,4.3L16,10.8    L16,10.8 M13.7,6.5l-2.3,1.7c-0.5,0.4-0.5,1.2,0,1.6l3.8,2.9c0.4,0.4,1.1,0.4,1.5,0l6.7-5.1l0.1-0.1c0.6-0.6,0.6-1.5,0-2.1    l-0.1-0.1l-6.7-5.1c-0.4-0.4-1.1-0.4-1.5,0l-3.8,2.9c-0.5,0.4-0.5,1.2,0,1.6L13.7,6.5z" style="fill: #111111;"></path></g></g></g><g id="SvgjsG6546" featureKey="nameFeature-0" transform="matrix(2.6615565776726284,0,0,2.6615565776726284,-4.258491539579466,-31.08697402468446)" fill="#111111"><path d="M8.24 12 c4.56 0 6.52 2.12 6.52 6.44 l0 1 c0 2.88 -0.88 4.68 -2.84 5.6 l0 0.08 c2.36 0.92 3.28 3 3.28 5.96 l0 2.28 c0 4.32 -2.28 6.64 -6.68 6.64 l-6.92 0 l0 -28 l6.64 0 z M7.96 27.4 l-1.96 0 l0 8.6 l2.52 0 c1.48 0 2.28 -0.68 2.28 -2.76 l0 -2.44 c0 -2.6 -0.84 -3.4 -2.84 -3.4 z M8.12 16 l-2.12 0 l0 7.4 l1.72 0 c1.64 0 2.64 -0.72 2.64 -2.96 l0 -1.56 c0 -2 -0.68 -2.88 -2.24 -2.88 z M26.208000000000002 18.44 l0 15.12 c0 2 0.88 2.76 2.28 2.76 s2.28 -0.76 2.28 -2.76 l0 -15.12 c0 -2 -0.88 -2.76 -2.28 -2.76 s-2.28 0.76 -2.28 2.76 z M21.808 33.28 l0 -14.56 c0 -4.48 2.36 -7.04 6.68 -7.04 s6.68 2.56 6.68 7.04 l0 14.56 c0 4.48 -2.36 7.04 -6.68 7.04 s-6.68 -2.56 -6.68 -7.04 z M51.736000000000004 40 l-5.4 -20.28 l-0.08 0 l0 20.28 l-3.96 0 l0 -28 l5.52 0 l4.44 16.76 l0.08 0 l0 -16.76 l3.92 0 l0 28 l-4.52 0 z M67.784 18.44 l0 15.12 c0 2 0.88 2.76 2.28 2.76 s2.28 -0.76 2.28 -2.76 l0 -15.12 c0 -2 -0.88 -2.76 -2.28 -2.76 s-2.28 0.76 -2.28 2.76 z M63.38400000000001 33.28 l0 -14.56 c0 -4.48 2.36 -7.04 6.68 -7.04 s6.68 2.56 6.68 7.04 l0 14.56 c0 4.48 -2.36 7.04 -6.68 7.04 s-6.68 -2.56 -6.68 -7.04 z"></path></g>
			</g>
		</svg>
	