<svg width="20" height="21" viewBox="0 0 20 21" fill="none" xmlns="http://www.w3.org/2000/svg">
<path d="M20 10.4585C20 4.93569 15.5228 0.458542 10 0.458542C4.47715 0.458542 0 4.93569 0 10.4585C0 15.9814 4.47715 20.4585 10 20.4585C15.5228 20.4585 20 15.9814 20 10.4585Z" fill="#191919"/>
<path fill-rule="evenodd" clip-rule="evenodd" d="M8.5233 6.32385C8.5233 5.51899 9.18181 4.86058 9.98657 4.86058C10.7914 4.86058 11.4498 5.51899 11.4498 6.32385C11.4498 9.28732 11.4498 12.2511 11.4498 15.2146C11.4498 16.0193 10.7914 16.6777 9.98657 16.6777C9.18181 16.6777 8.5233 16.0193 8.5233 15.2146V6.32385Z" fill="white"/>
<path fill-rule="evenodd" clip-rule="evenodd" d="M12.0684 6.30818L15.1375 9.37709C15.7066 9.94627 15.7066 10.8774 15.1374 11.4466C14.5684 12.0157 13.6372 12.0157 13.0681 11.4467L10.0001 8.37853L6.93194 11.4466C6.36276 12.0157 5.43163 12.0157 4.86255 11.4466C4.29337 10.8774 4.29337 9.94627 4.86255 9.3772L8.17541 6.06434L8.1752 6.06423L10.0001 4.23933L12.0687 6.30796L12.0684 6.30818Z" fill="white"/>
</svg>
